Patient4_TMGait_0pt3_01_right_27_EMG.mot
version=1
nRows=16
nColumns=33
inDegrees=no
endheader
time	1LAddLong	2LGlutMax	3LGlutMed	4LIliopsoas	5LSemiMemb	6LBicFemLong	7LRecFem	8LVastMed	9LVastLat	10LGasMed	11LTibAnt	12lTibPost	13LPeroneusLong	14LSol	15LExtDigLong	16LFlexDigLong	17RAddLong	18RGlutMax	19RGlutMed	20RIliopsoas	21RSemiMemb	22RBicFemLong	23RRecFem	24RVastMed	25RVastLat	26RGasMed	27RTibAnt	28RTibPost	29RPeroneusLong	30RSol	31RExtDigLong	32RFlexDigLong
51.963	0.003815	0.0354	0.31189	0.001984	0.00351	0.11749	-0.082855	0.010986	0.15076	0.046692	-0.01236	0.028229	0.2948	0.13718	0.027008	-0.031128	-0.007019	0.14389	-0.39063	0.002594	0.066376	0.027771	-0.001221	-0.051575	-0.006714	-0.001526	0.11124	-0.002136	0.13886	0.027466	-0.001373	-0.010681
51.964	0.010681	-0.020294	0.21713	-0.001221	0.008698	0.14893	-0.082855	-0.004883	0.086212	-0.002136	0.004425	0.006409	-0.22858	-0.004578	0.00412	0.14435	0.009155	0.10849	-0.27557	-0.011597	0.059967	0.005646	-0.02533	-0.042725	-0.006104	-0.002136	0.031433	-0.00351	0.46432	-0.015259	-0.005493	-0.008392
51.965	0.002136	-0.053558	0.08667	-0.001221	0.016937	0.039368	-0.069733	-0.013428	-0.040283	-0.032043	-0.003204	0.062714	-0.077515	-0.13092	-0.063171	0.091553	0.025482	0.14938	-0.24277	0.018921	0.055542	0.00061	-0.003357	-0.033264	-0.006714	-0.006866	-0.089874	-0.002747	0.001221	0.022278	-0.004425	-0.007477
51.966	0.002594	-0.041199	-0.13657	0.02182	0.0177	-0.12589	-0.098724	-0.001068	-0.068512	-0.066681	0.031128	0.021973	-0.020599	-0.10757	-0.029449	0.021667	0.026855	0.10468	-0.20432	0.056152	0.065308	0.002136	-0.006866	-0.006256	-0.011597	-0.007019	0.02655	-0.003052	-0.23575	0.041504	-0.007019	-0.002899
51.967	0.005341	-0.026093	-0.16602	0.018768	0.018921	-0.20157	-0.093079	-0.003662	-0.055847	-0.084381	0.002594	0.030365	-0.039673	0.038147	-0.000305	0.020905	0.027924	0.14755	-0.27588	0.038757	0.05249	0.006256	0.020905	-0.026398	-0.011902	0.003052	-0.091858	-0.000916	-0.040741	-0.13245	0.001678	0
51.968	-0.007324	-0.048523	0.031128	0.036774	0.016022	-0.074158	-0.014191	-0.005951	-0.000458	-0.033112	-0.06012	0.019073	-0.044403	0.035706	-0.057678	0.013885	0.054779	0.10895	0.036469	-0.021515	0.050201	0.002747	0.024109	-0.040131	-0.023956	-0.003052	0.14389	-0.001373	-0.09613	-0.18249	-0.000916	-0.013275
51.969	-0.002747	-0.068207	0.17273	0.029144	0.019684	-0.1622	-0.041046	-0.007172	0.11093	-0.033569	0.031586	0.019684	-0.058594	0.079041	-0.00946	0.015411	0.078125	0.11139	0.031738	-0.018463	0.037231	-0.005798	0.019684	-0.036163	-0.013275	0	0.34485	-0.007477	-0.168	-0.1741	-0.001068	-0.005188
51.97	-0.002136	-0.13977	-0.029297	0.02243	0.008698	-0.056763	-0.05188	-0.006256	0.18692	-0.050201	0.02182	0.017395	0.033722	0.10941	0.03006	-0.002594	0.077667	0.065308	-0.25909	0.027313	0.037994	-0.022278	0.015564	-0.016022	-0.018768	0.001221	0.3244	-0.001526	-0.032959	-0.21469	-0.004272	-0.00824
51.971	-0.003815	-0.081635	0.007477	0.017395	0.012207	-0.012512	-0.002594	-0.00946	0.10788	-0.042419	0.006256	0.019226	0.11856	0.095825	0.030518	-0.00061	0.055847	0.052185	-0.4187	0.026245	0.0177	-0.002594	0.028076	-0.002441	0.000458	-0.000763	-0.083923	-0.005035	0.019379	-0.095978	-0.00473	-0.010071
51.972	-0.005493	-0.028992	-0.087433	-0.006409	0.001373	-0.033264	0.059052	-0.009613	0.038452	-0.0354	0.012054	0.020599	0.031891	0.071564	0.025787	-0.000305	0.049133	0.09964	-0.33066	-0.002899	0.011749	-0.002899	-0.012512	0.012512	-0.014954	-0.006256	-0.2298	-0.00885	0.002899	0.020905	-0.003052	-0.013733
51.973	-0.009003	0.007782	-0.083618	-0.006409	0.01236	-0.027008	0.077972	-0.006409	0.010376	-0.034637	0.019379	0.016937	-0.061951	0.044708	-0.021057	0.011292	0.055542	0.13016	-0.12024	-0.075531	0.003815	0.011902	-0.031586	-0.029144	-0.003967	-0.009918	-0.18249	-0.004578	-0.030823	0.1297	-0.001984	-0.013733
51.974	-0.006409	0.063629	0.092621	0.012054	0	0.11719	0.09613	0.004272	-0.030518	-0.068512	0.002899	0.01709	-0.020142	0.018616	0.006561	0.003052	0.049744	0.15243	0.039368	-0.072174	0.003815	0.028839	0.022583	-0.024261	-0.002289	-0.010986	-0.22095	-0.006714	-0.004578	0.16876	-0.00412	-0.007477
51.975	0.002594	-0.05249	0.29068	0.027771	0.001526	0.2594	0.015869	-0.002136	-0.045166	-0.046387	-0.005951	0.013733	0.024872	-0.011902	0.050049	-0.001526	0.016785	0.075684	-0.049286	-0.032501	0.000763	0.050964	-0.012207	-0.034943	0.039063	-0.01358	0.035553	-0.006256	0.001526	0.12497	-0.001221	-0.003204
51.976	0.004272	-0.10574	0.27115	-0.019836	0.019684	0.22339	-0.091858	0.008698	-0.052948	-0.010681	0.003662	0.01709	0.033417	0.028229	0.061493	-0.015259	-0.005951	0.044098	-0.29388	-0.036469	0.000305	0.052032	-0.009918	-0.043793	0.029602	-0.010223	0.37415	-0.005035	0.12726	0.043488	-0.002441	-0.001984
51.977	0.000305	-0.11932	0.27924	0.002594	-0.001068	0.31815	-0.046082	0.025177	-0.093384	0.04837	0.01709	0.017242	0.023346	0.074005	0.041656	-0.00885	-0.009003	0.053558	-0.26703	-0.099792	0.009155	0.065308	-0.021667	-0.032196	0.032349	-0.002747	0.62103	-0.002747	0.013885	0.010834	-0.00351	-0.00061
51.978	0.007324	-0.11246	0.20111	0.012054	-0.007172	0.23956	-0.04364	0.046234	-0.13779	-0.041962	0.003815	0.016785	-0.20187	0.057373	-0.006409	0.003662	-0.019379	0.088501	-0.17288	-0.040741	0.022278	0.06073	-0.044403	0.007172	0.02594	-0.002899	0.42648	-0.002899	0.074005	-0.037537	-0.003357	-0.001984
